<svg xmlns="http://www.w3.org/2000/svg" viewBox="0 0 520.10 261.99" fill="#F12C36"><path d="M 364.40000000000003,1.3897686289804305 C 358.3,3.9897686289804533 355.70000000000005,11.489768628980453 358.20000000000005,18.689768628980442 C 359.6,22.789768628980465 363.1,24.88976862898043 368.50000000000006,24.88976862898043 C 374.50000000000006,24.88976862898043 376.1000000000001,24.08976862898042 376.1,21.289768628980408 C 376.1,18.38976862898043 374.5,18.08976862898042 373.6,20.789768628980408 C 372.40000000000003,24.58976862898042 365.3,24.08976862898042 363.20000000000005,19.989768628980396 C 362.6,18.889768628980374 362.1,15.489768628980396 362.1,12.38976862898043 C 362.1,7.789768628980408 362.5,6.3897686289804305 364.6,4.3897686289804305 C 368.0,0.8897686289804305 373.1,1.2897686289804078 373.1,4.989768628980396 C 373.1,5.989768628980396 373.8,6.889768628980374 374.6,6.8897686289804305 C 375.6,6.8897686289804305 376.1,5.8897686289804305 376.1,3.9897686289803964 C 376.1,1.5897686289804192 375.6,1.0897686289804192 373.00000000000006,0.4897686289803964 C 368.80000000000007,-0.31023137101961495 368.1000000000001,-0.21023137101959222 364.40000000000003,1.3897686289803737 M 456.30000000000007,0.8897686289804305 C 452.80000000000007,2.3897686289804305 451.6000000000001,5.989768628980453 453.50000000000006,9.689768628980442 C 455.00000000000006,12.58976862898042 455.00000000000006,12.789768628980465 452.6,14.289768628980408 C 449.6,16.289768628980408 449.20000000000005,20.789768628980408 451.90000000000003,23.189768628980442 C 453.3,24.38976862898043 455.70000000000005,24.789768628980465 463.00000000000006,24.689768628980442 C 471.90000000000003,24.58976862898042 472.30000000000007,24.489768628980453 470.20000000000005,22.989768628980396 C 468.20000000000005,21.489768628980396 468.20000000000005,20.989768628980396 469.20000000000005,17.88976862898043 C 469.90000000000003,15.989768628980453 471.20000000000005,13.88976862898043 472.00000000000006,13.189768628980442 C 473.30000000000007,12.189768628980442 472.90000000000003,11.989768628980453 469.40000000000003,11.88976862898043 C 467.00000000000006,11.88976862898043 465.1,12.289768628980408 465.1,12.88976862898043 C 465.1,13.38976862898043 465.6,13.88976862898043 466.1,13.88976862898043 C 466.70000000000005,13.88976862898043 467.1,14.989768628980453 467.1,16.38976862898043 C 467.1,19.689768628980442 466.1,19.58976862898042 462.6,15.88976862898043 L 459.80000000000007,12.88976862898043 L 462.40000000000003,10.489768628980396 C 465.70000000000005,7.389768628980374 465.90000000000003,3.589768628980419 462.90000000000003,1.4897686289803964 C 460.40000000000003,-0.31023137101961495 459.6,-0.41023137101958085 456.3,0.8897686289803737 M 461.90000000000003,4.689768628980442 C 462.1,5.989768628980453 461.50000000000006,7.989768628980453 460.50000000000006,8.989768628980396 C 458.80000000000007,10.889768628980374 458.6000000000001,10.889768628980374 457.40000000000003,9.289768628980408 C 456.00000000000006,7.3897686289804305 455.70000000000005,3.689768628980385 456.80000000000007,2.4897686289803964 C 458.30000000000007,0.9897686289803964 461.6000000000001,2.3897686289803737 461.9000000000001,4.689768628980385 M 460.1,18.38976862898043 C 461.90000000000003,20.289768628980408 463.3,22.08976862898042 463.00000000000006,22.289768628980408 C 462.50000000000006,22.789768628980408 459.30000000000007,23.189768628980385 456.80000000000007,22.989768628980396 C 454.30000000000007,22.789768628980408 452.4000000000001,18.389768628980374 454.1,16.38976862898043 C 455.8,14.289768628980408 456.3,14.38976862898043 460.1,18.38976862898043 M 0.3000000000000007,101.58976862898042 L 0.5999999999999979,197.38976862898042 L 2.8999999999999986,204.38976862898042 C 12.3,232.0897686289804 32.7,251.7897686289804 59.900000000000006,259.08976862898044 C 70.80000000000001,261.98976862898047 88.7,261.98976862898047 99.4,259.08976862898044 C 116.30000000000001,254.48976862898044 133.1,243.38976862898042 143.0,230.28976862898043 C 145.7,226.68976862898043 148.2,223.18976862898043 148.5,222.5897686289804 C 149.0,221.68976862898043 149.2,221.68976862898043 149.70000000000002,222.68976862898043 C 150.00000000000003,223.28976862898043 152.60000000000002,226.88976862898042 155.5,230.5897686289804 C 165.9,244.0897686289804 181.5,254.38976862898042 198.6,258.98976862898047 C 209.6,261.98976862898047 227.29999999999998,261.98976862898047 238.4,259.08976862898044 C 262.1,252.68976862898043 283.50000000000006,233.78976862898043 292.6,211.18976862898043 C 298.1,197.38976862898042 298.1,197.38976862898042 298.1,99.28976862898041 L 298.1,8.88976862898043 L 287.6,8.88976862898043 L 277.1,8.88976862898043 L 277.1,98.08976862898042 C 277.1,197.0897686289804 277.20000000000005,194.7897686289804 270.50000000000006,207.9897686289804 C 263.40000000000003,222.0897686289804 246.30000000000004,235.98976862898044 232.9,238.38976862898042 L 229.1,239.0897686289804 L 229.1,159.9897686289804 C 229.1,106.78976862898041 228.7,78.38976862898043 228.0,73.58976862898042 C 225.5,57.389768628980434 216.6,40.08976862898042 205.0,28.789768628980408 C 197.8,21.689768628980385 192.1,17.789768628980408 182.8,13.38976862898043 C 172.10000000000002,8.289768628980408 165.10000000000002,6.689768628980442 150.9,6.189768628980442 L 138.1,5.689768628980442 L 138.1,97.48976862898043 C 138.1,175.88976862898042 137.79999999999998,190.28976862898043 136.6,195.7897686289804 C 132.79999999999998,211.68976862898043 120.79999999999998,226.4897686289804 105.9,233.78976862898043 C 101.30000000000001,235.98976862898044 95.9,238.0897686289804 93.9,238.48976862898044 L 90.2,239.0897686289804 L 89.9,154.7897686289804 L 89.6,70.38976862898043 L 86.4,61.28976862898041 C 74.5,27.08976862898042 45.0,5.8897686289804305 9.5,5.8897686289804305 L 0.0,5.8897686289804305 L 0.3000000000000007,101.58976862898042 M 31.8,31.08976862898042 C 48.7,37.28976862898041 62.400000000000006,52.98976862898043 67.1,71.48976862898043 C 69.0,78.88976862898043 69.1,82.78976862898044 69.1,159.18976862898043 L 69.1,239.0897686289804 L 65.5,238.38976862898042 C 63.5,238.0897686289804 59.400000000000006,236.68976862898043 56.5,235.38976862898042 C 41.400000000000006,228.68976862898043 30.099999999999998,216.4897686289804 24.3,200.7897686289804 L 21.599999999999998,193.38976862898042 L 21.3,110.58976862898042 L 21.000000000000004,27.789768628980408 L 23.8,28.489768628980425 C 25.400000000000002,28.88976862898043 29.000000000000004,29.989768628980425 31.8,31.08976862898042 M 170.6,31.189768628980413 C 187.5,38.18976862898042 199.7,51.48976862898043 205.70000000000002,69.88976862898043 C 207.4,74.98976862898043 207.60000000000002,81.28976862898044 207.9,157.2897686289804 L 208.20000000000002,239.18976862898043 L 204.4,238.5897686289804 C 199.0,237.68976862898043 185.4,230.68976862898043 179.8,225.78976862898043 C 173.60000000000002,220.38976862898042 167.10000000000002,211.0897686289804 163.5,202.38976862898042 L 160.6,195.38976862898042 L 160.3,111.58976862898042 L 160.0,27.789768628980408 L 162.8,28.489768628980425 C 164.4,28.88976862898043 167.9,30.08976862898042 170.60000000000002,31.189768628980413 M 382.90000000000003,7.089768628980419 C 378.90000000000003,8.489768628980396 379.40000000000003,10.08976862898042 383.6,9.289768628980408 C 385.8,8.88976862898043 387.70000000000005,9.08976862898042 388.6,9.88976862898043 C 391.20000000000005,11.989768628980453 390.3,13.58976862898042 386.20000000000005,14.289768628980408 C 381.6,14.989768628980396 379.1,17.08976862898042 379.1,20.289768628980408 C 379.1,23.38976862898043 380.90000000000003,24.88976862898043 384.6,24.88976862898043 C 386.3,24.88976862898043 388.20000000000005,24.38976862898043 388.90000000000003,23.689768628980442 C 389.8,22.789768628980465 390.1,22.789768628980465 390.1,23.689768628980442 C 390.1,24.38976862898043 391.20000000000005,24.88976862898043 392.6,24.88976862898043 C 394.0,24.88976862898043 395.1,24.38976862898043 395.1,23.88976862898043 C 395.1,23.289768628980408 394.70000000000005,22.88976862898043 394.1,22.88976862898043 C 393.5,22.88976862898043 393.1,19.88976862898043 393.1,15.989768628980396 C 393.1,9.889768628980374 392.8,8.789768628980408 390.90000000000003,7.489768628980396 C 388.40000000000003,5.689768628980385 386.8,5.589768628980419 382.90000000000003,7.089768628980419 M 390.1,18.289768628980408 C 390.1,21.08976862898042 387.90000000000003,23.189768628980385 385.40000000000003,22.689768628980442 C 381.3,21.88976862898043 383.3,15.88976862898043 387.70000000000005,15.88976862898043 C 389.6,15.88976862898043 390.1,16.38976862898043 390.1,18.289768628980408 M 419.40000000000003,6.989768628980396 C 415.00000000000006,8.289768628980408 415.1,10.289768628980408 419.50000000000006,9.489768628980396 C 423.70000000000005,8.689768628980385 426.1000000000001,9.58976862898042 426.1,11.88976862898043 C 426.1,13.189768628980442 425.0,13.789768628980408 422.30000000000007,14.289768628980408 C 417.1000000000001,15.08976862898042 414.4000000000001,18.08976862898042 415.70000000000005,21.689768628980442 C 416.6,24.289768628980465 416.90000000000003,24.38976862898043 424.50000000000006,24.58976862898042 C 430.40000000000003,24.689768628980442 432.1000000000001,24.489768628980396 431.20000000000005,23.58976862898042 C 430.6,22.989768628980396 430.1,19.789768628980408 430.1,16.38976862898043 C 430.1,12.989768628980453 429.5,9.489768628980453 428.90000000000003,8.58976862898042 C 427.20000000000005,6.489768628980396 423.40000000000003,5.789768628980408 419.40000000000003,6.989768628980396 M 426.1,18.88976862898043 C 426.1,21.289768628980408 425.6,21.989768628980453 423.50000000000006,22.489768628980396 C 421.1000000000001,23.08976862898042 419.20000000000005,21.889768628980374 419.1,19.689768628980442 C 419.1,18.289768628980465 422.3,15.88976862898043 424.20000000000005,15.88976862898043 C 425.6,15.88976862898043 426.1,16.58976862898042 426.1,18.88976862898043 M 396.1,7.689768628980442 C 396.1,8.08976862898042 396.5,8.88976862898043 397.00000000000006,9.38976862898043 C 397.40000000000003,9.989768628980453 399.1000000000001,13.689768628980442 400.6,17.58976862898042 C 402.6,22.789768628980408 403.90000000000003,24.88976862898043 405.20000000000005,24.88976862898043 C 406.40000000000003,24.88976862898043 407.70000000000005,22.88976862898043 409.70000000000005,17.58976862898042 C 411.20000000000005,13.689768628980442 413.1,9.58976862898042 413.90000000000003,8.58976862898042 C 415.3,6.989768628980396 415.1,6.8897686289804305 411.80000000000007,6.8897686289804305 C 409.70000000000005,6.8897686289804305 408.1000000000001,7.289768628980408 408.1,7.8897686289804305 C 408.1,8.38976862898043 408.5,8.88976862898043 409.00000000000006,8.88976862898043 C 409.50000000000006,8.88976862898043 409.00000000000006,11.689768628980442 407.90000000000003,15.08976862898042 L 405.70000000000005,21.38976862898043 L 404.30000000000007,17.88976862898043 C 403.4000000000001,15.989768628980453 402.70000000000005,12.689768628980442 402.70000000000005,10.58976862898042 C 402.6,7.089768628980419 402.50000000000006,6.8897686289804305 399.40000000000003,6.8897686289804305 C 397.6,6.8897686289804305 396.1,7.289768628980408 396.1,7.689768628980442 M 361.80000000000007,40.98976862898043 C 358.50000000000006,43.48976862898043 356.6000000000001,49.48976862898043 357.50000000000006,54.389768628980434 C 358.90000000000003,61.689768628980445 365.6000000000001,65.18976862898045 373.90000000000003,62.889768628980434 C 378.00000000000006,61.78976862898044 378.1,61.689768628980445 378.1,57.389768628980434 C 378.1,54.889768628980434 378.6,52.889768628980434 379.1,52.889768628980434 C 379.70000000000005,52.889768628980434 380.1,52.389768628980434 380.1,51.889768628980434 C 380.1,51.28976862898044 377.90000000000003,50.889768628980434 375.1,50.889768628980434 C 372.40000000000003,50.889768628980434 370.1,51.28976862898044 370.1,51.889768628980434 C 370.1,52.389768628980434 371.0,52.889768628980434 372.1,52.889768628980434 C 373.8,52.889768628980434 374.1,53.58976862898042 374.1,56.78976862898041 C 374.1,59.389768628980406 373.6,60.889768628980406 372.50000000000006,61.28976862898041 C 369.50000000000006,62.4897686289804 367.00000000000006,61.889768628980406 364.6,59.389768628980434 C 362.5,57.389768628980434 362.1,55.98976862898043 362.1,51.18976862898042 C 362.1,43.28976862898041 363.8,40.889768628980406 369.6,40.889768628980434 C 373.3,40.889768628980434 374.0,41.189768628980445 374.30000000000007,43.08976862898042 C 374.80000000000007,46.28976862898041 376.80000000000007,46.389768628980434 377.50000000000006,43.28976862898041 C 378.40000000000003,39.78976862898041 377.00000000000006,38.889768628980406 370.00000000000006,38.889768628980434 C 365.80000000000007,38.889768628980434 363.70000000000005,39.389768628980434 361.80000000000007,40.98976862898043 M 491.1,41.389768628980434 C 491.1,42.189768628980445 490.20000000000005,43.78976862898044 489.20000000000005,44.78976862898041 C 487.6,46.389768628980406 487.50000000000006,46.78976862898041 488.70000000000005,47.28976862898041 C 489.70000000000005,47.68976862898042 490.1,49.78976862898041 490.1,55.28976862898041 C 490.1,63.4897686289804 491.1,64.68976862898042 496.5,63.28976862898041 C 499.79999999999995,62.4897686289804 499.9,60.889768628980406 496.6,60.889768628980434 C 494.9,60.889768628980434 494.0,60.189768628980445 493.6,58.58976862898042 C 492.6,54.78976862898041 493.5,47.389768628980434 494.9000000000001,47.28976862898041 C 495.5000000000001,47.18976862898042 496.80000000000007,47.08976862898042 497.6,46.98976862898043 C 500.4,46.78976862898044 499.1,44.889768628980434 496.1,44.889768628980434 C 493.6,44.889768628980434 493.1,44.48976862898043 493.1,42.389768628980434 C 493.1,40.98976862898043 492.70000000000005,39.889768628980434 492.1,39.889768628980434 C 491.6,39.889768628980434 491.1,40.58976862898042 491.1,41.389768628980434 M 386.30000000000007,45.58976862898042 C 384.50000000000006,46.28976862898041 382.1000000000001,51.28976862898041 382.1,54.28976862898041 C 382.1,62.889768628980406 391.3,66.8897686289804 397.1,60.68976862898042 C 399.8,57.68976862898042 399.8,51.08976862898042 397.00000000000006,47.48976862898043 C 395.40000000000003,45.48976862898043 394.1000000000001,44.889768628980434 391.30000000000007,44.98976862898043 C 389.30000000000007,44.98976862898043 387.00000000000006,45.28976862898044 386.30000000000007,45.58976862898042 M 394.1,48.78976862898041 C 396.6,53.58976862898042 394.5,61.889768628980406 390.70000000000005,61.889768628980434 C 387.40000000000003,61.889768628980434 385.1,54.48976862898043 387.00000000000006,49.58976862898042 C 388.30000000000007,46.28976862898041 392.50000000000006,45.78976862898041 394.1000000000001,48.78976862898041 M 401.1,45.889768628980434 C 401.1,46.389768628980434 401.6,46.889768628980434 402.1,46.889768628980434 C 402.70000000000005,46.889768628980434 403.1,49.689768628980445 403.1,53.389768628980434 C 403.1,62.389768628980434 406.5,65.88976862898043 412.40000000000003,62.78976862898041 C 414.00000000000006,61.889768628980406 414.6,61.889768628980406 414.90000000000003,62.78976862898041 C 415.40000000000003,64.18976862898042 418.8,64.28976862898041 419.6,62.889768628980434 C 419.90000000000003,62.28976862898044 419.70000000000005,61.889768628980434 419.20000000000005,61.889768628980434 C 418.50000000000006,61.889768628980434 418.1,58.689768628980445 418.1,53.389768628980434 L 418.1,44.889768628980434 L 415.1,44.889768628980434 C 413.5,44.889768628980434 412.1,45.28976862898044 412.1,45.889768628980434 C 412.1,46.389768628980434 412.6,46.889768628980434 413.1,46.889768628980434 C 413.8,46.889768628980434 414.1,49.389768628980434 413.90000000000003,53.58976862898042 L 413.6,60.389768628980434 L 410.6,60.389768628980434 L 407.6,60.389768628980434 L 407.30000000000007,52.58976862898042 L 407.00000000000006,44.889768628980434 L 404.1,44.889768628980434 C 402.40000000000003,44.889768628980434 401.1,45.28976862898044 401.1,45.889768628980434 M 422.6,45.889768628980434 C 422.3,46.48976862898043 422.70000000000005,47.189768628980445 423.50000000000006,47.48976862898043 C 425.90000000000003,48.389768628980434 425.80000000000007,60.389768628980434 423.40000000000003,61.78976862898041 C 421.3,62.9897686289804 421.20000000000005,62.9897686289804 427.30000000000007,63.48976862898043 C 429.9000000000001,63.68976862898042 432.30000000000007,63.389768628980434 432.6,62.889768628980434 C 432.90000000000003,62.28976862898044 432.3,61.889768628980434 431.1,61.889768628980434 C 429.20000000000005,61.889768628980434 429.0,61.389768628980434 429.30000000000007,55.58976862898042 C 429.6000000000001,49.68976862898042 429.70000000000005,49.389768628980434 432.40000000000003,49.08976862898042 C 434.3,48.889768628980434 435.1,48.18976862898042 435.1,46.78976862898041 C 435.1,44.389768628980406 432.40000000000003,44.28976862898041 429.90000000000003,46.58976862898042 C 428.20000000000005,48.08976862898042 428.1,48.08976862898042 428.1,46.58976862898042 C 428.1,44.68976862898042 423.70000000000005,44.18976862898042 422.6,45.889768628980434 M 437.6,45.889768628980434 C 437.3,46.48976862898043 437.70000000000005,47.189768628980445 438.50000000000006,47.48976862898043 C 439.70000000000005,47.98976862898043 440.1000000000001,49.58976862898042 440.1,54.389768628980434 C 440.1,57.889768628980434 439.70000000000005,61.08976862898042 439.1,61.389768628980434 C 437.0,62.689768628980445 438.3,63.689768628980445 441.90000000000003,63.389768628980434 C 446.8,62.98976862898043 446.90000000000003,62.98976862898043 444.80000000000007,61.78976862898041 C 443.30000000000007,60.889768628980406 443.00000000000006,59.58976862898042 443.20000000000005,54.78976862898041 C 443.40000000000003,48.28976862898041 445.20000000000005,46.18976862898042 449.1,47.389768628980434 C 450.8,47.98976862898043 451.1,48.98976862898043 451.1,54.98976862898043 C 451.1,59.18976862898042 450.70000000000005,61.889768628980434 450.00000000000006,61.889768628980434 C 449.50000000000006,61.889768628980434 449.30000000000007,62.28976862898044 449.6,62.889768628980434 C 450.3,63.98976862898043 457.1,63.78976862898044 457.1,62.58976862898042 C 457.1,62.18976862898042 456.70000000000005,61.889768628980434 456.1,61.889768628980434 C 455.5,61.889768628980434 455.1,58.889768628980434 455.1,54.98976862898043 C 455.1,47.68976862898042 456.20000000000005,46.08976862898042 460.20000000000005,47.389768628980434 C 461.80000000000007,47.889768628980434 462.1,49.08976862898042 462.1,54.98976862898043 C 462.1,59.18976862898042 461.70000000000005,61.889768628980434 461.00000000000006,61.889768628980434 C 460.50000000000006,61.889768628980434 460.20000000000005,62.28976862898044 460.50000000000006,62.78976862898041 C 461.1000000000001,63.78976862898041 466.6000000000001,63.68976862898042 467.70000000000005,62.58976862898042 C 468.1,62.18976862898042 467.90000000000003,61.889768628980434 467.30000000000007,61.889768628980434 C 466.50000000000006,61.889768628980434 466.1000000000001,59.48976862898043 466.1,54.58976862898042 C 466.1,50.28976862898041 465.6,46.78976862898041 464.90000000000003,46.08976862898042 C 463.40000000000003,44.58976862898042 458.70000000000005,44.48976862898043 456.1,45.889768628980434 C 454.8,46.58976862898042 454.0,46.58976862898042 453.6,45.889768628980434 C 452.8,44.58976862898042 448.5,44.58976862898042 445.80000000000007,45.98976862898043 C 444.20000000000005,46.889768628980434 443.6000000000001,46.889768628980434 443.30000000000007,45.98976862898043 C 442.80000000000007,44.58976862898042 438.4000000000001,44.48976862898043 437.6000000000001,45.889768628980434 M 473.20000000000005,46.78976862898041 C 468.70000000000005,51.28976862898041 469.80000000000007,60.68976862898042 475.20000000000005,62.889768628980434 C 477.20000000000005,63.78976862898044 479.20000000000005,63.889768628980434 481.30000000000007,63.28976862898041 C 485.9000000000001,61.889768628980406 485.80000000000007,60.28976862898041 481.20000000000005,60.68976862898042 C 477.90000000000003,60.98976862898043 477.00000000000006,60.68976862898042 475.6,58.48976862898043 C 473.20000000000005,54.889768628980434 474.40000000000003,53.889768628980434 480.80000000000007,53.889768628980434 L 486.40000000000003,53.889768628980434 L 485.70000000000005,50.58976862898042 C 485.40000000000003,48.889768628980434 484.30000000000007,46.78976862898041 483.40000000000003,46.08976862898042 C 480.90000000000003,44.28976862898041 475.40000000000003,44.58976862898042 473.20000000000005,46.78976862898041 M 481.40000000000003,49.08976862898042 C 482.20000000000005,52.08976862898042 481.50000000000006,52.889768628980434 478.1,52.889768628980434 C 474.6,52.889768628980434 473.6,51.58976862898042 475.1,48.889768628980434 C 476.6,46.08976862898042 480.70000000000005,46.189768628980445 481.40000000000003,49.08976862898042 M 372.1,103.28976862898041 C 347.1,108.8897686289804 327.20000000000005,124.58976862898042 316.20000000000005,147.38976862898042 C 310.40000000000003,159.38976862898042 308.70000000000005,167.18976862898043 308.70000000000005,181.88976862898042 C 308.70000000000005,191.68976862898043 309.20000000000005,196.0897686289804 310.90000000000003,202.18976862898043 C 317.70000000000005,226.2897686289804 335.40000000000003,246.38976862898042 357.90000000000003,255.48976862898044 C 372.50000000000006,261.38976862898045 370.90000000000003,261.18976862898046 432.40000000000003,261.68976862898046 L 489.1,261.98976862898047 L 489.1,250.98976862898044 L 489.1,239.88976862898042 L 434.30000000000007,239.88976862898042 C 374.00000000000006,239.88976862898042 374.00000000000006,239.88976862898042 361.1,233.5897686289804 C 351.70000000000005,228.9897686289804 340.6,217.68976862898043 335.80000000000007,207.88976862898042 C 333.80000000000007,203.78976862898043 331.9000000000001,198.4897686289804 331.50000000000006,196.0897686289804 L 330.80000000000007,191.88976862898042 L 380.80000000000007,191.88976862898042 C 428.30000000000007,191.88976862898042 431.1000000000001,191.78976862898043 439.20000000000005,189.7897686289804 C 461.40000000000003,184.18976862898043 480.50000000000006,169.1897686289804 491.00000000000006,149.0897686289804 C 496.80000000000007,137.88976862898042 499.1,128.5897686289804 499.80000000000007,114.08976862898042 L 500.4000000000001,101.88976862898043 L 439.00000000000006,101.98976862898043 C 394.6,102.08976862898042 376.1,102.38976862898043 372.1,103.28976862898044 M 478.1,123.18976862898042 C 478.1,123.3897686289804 477.20000000000005,126.48976862898043 476.00000000000006,129.9897686289804 C 473.00000000000006,139.1897686289804 468.6000000000001,146.28976862898043 461.70000000000005,153.38976862898042 C 454.90000000000003,160.18976862898043 449.1,163.9897686289804 439.20000000000005,167.7897686289804 L 432.6,170.38976862898042 L 381.40000000000003,170.68976862898043 L 330.20000000000005,170.9897686289804 L 331.80000000000007,165.68976862898043 C 337.9000000000001,144.88976862898042 354.1000000000001,129.4897686289804 375.1,124.38976862898043 C 379.3,123.38976862898043 392.20000000000005,122.98976862898043 429.40000000000003,122.98976862898043 C 456.20000000000005,122.88976862898043 478.1,123.08976862898042 478.1,123.18976862898042 M 506.4000000000001,243.7897686289804 C 500.60000000000014,247.38976862898042 501.0000000000001,256.2897686289804 507.1,259.38976862898045 C 513.4,262.68976862898046 520.1,258.2897686289804 520.1,250.88976862898042 C 520.1,243.98976862898044 512.5,239.98976862898044 506.4,243.7897686289804 M 514.4000000000001,243.98976862898044 C 517.1000000000001,245.18976862898043 519.1000000000001,248.68976862898043 519.1,252.38976862898042 C 519.1,255.7897686289804 513.5,260.18976862898046 510.20000000000005,259.38976862898045 C 506.9000000000001,258.68976862898046 503.1,254.48976862898044 503.1,251.5897686289804 C 503.1,248.68976862898043 505.70000000000005,244.98976862898044 508.5,243.88976862898042 C 511.29999999999995,242.68976862898043 511.6,242.68976862898043 514.4,243.98976862898044 M 507.6,251.38976862898042 C 507.6,255.0897686289804 508.0,256.88976862898045 508.9000000000001,256.88976862898045 C 509.5000000000001,256.88976862898045 510.10000000000014,255.68976862898043 510.1,254.0897686289804 L 510.20000000000005,251.38976862898042 L 512.6,254.38976862898042 C 515.2,257.48976862898047 517.0,257.38976862898045 515.2,254.0897686289804 C 514.7,253.0897686289804 514.5,251.18976862898043 514.8000000000001,249.98976862898044 C 515.5000000000001,247.38976862898042 513.8000000000001,245.88976862898042 510.1,245.88976862898042 C 507.70000000000005,245.88976862898042 507.6,246.18976862898043 507.6,251.38976862898042 M 512.9000000000001,249.18976862898043 C 513.1000000000001,250.18976862898043 512.6000000000001,250.88976862898042 511.70000000000005,250.88976862898042 C 510.70000000000005,250.88976862898042 510.1,249.98976862898044 510.1,248.7897686289804 C 510.1,246.38976862898042 512.4,246.68976862898043 512.9,249.18976862898043"/></svg>