<svg xmlns="http://www.w3.org/2000/svg" viewBox="0 0 183.92 299.00" fill="#F12C36"><path d="M 0.0,59.19999999999999 C 0.10000000000000142,123.80000000000001 0.3000000000000007,127.19999999999999 5.700000000000003,141.1 C 9.800000000000004,151.5 16.500000000000007,161.3 25.400000000000006,169.7 C 36.2,180.0 49.10000000000001,187.0 63.30000000000001,190.1 L 69.0,191.29999999999998 L 69.0,234.2 L 69.0,277.0 L 34.5,277.0 L 0.0,277.0 L 0.0,288.0 L 0.0,299.0 L 80.0,299.0 L 160.0,299.0 L 160.0,288.0 L 160.0,277.0 L 125.5,277.0 L 91.0,277.0 L 91.0,234.10000000000002 L 91.0,191.2 L 95.30000000000001,190.5 C 102.9,189.2 115.9,183.9 123.30000000000001,179.0 C 136.9,170.1 147.4,157.6 153.60000000000002,143.0 C 159.8,128.6 160.00000000000003,126.4 160.0,60.0 L 160.0,0.0 L 149.60000000000002,0.0 L 139.10000000000002,0.0 L 138.8,61.19999999999999 C 138.4,121.19999999999999 138.4,122.6 136.20000000000002,129.0 C 131.10000000000002,144.2 119.4,157.9 105.80000000000001,164.39999999999998 C 101.80000000000001,166.29999999999998 96.80000000000001,168.2 94.80000000000001,168.5 L 91.10000000000001,169.2 L 90.80000000000001,118.29999999999998 C 90.4,69.1 90.30000000000001,67.29999999999998 88.10000000000001,59.5 C 77.9,23.69999999999999 46.400000000000006,0.0 8.899999999999999,0.0 L 0.0,0.0 L 0.0,59.19999999999999 M 38.5,28.30000000000001 C 46.8,32.60000000000002 58.599999999999994,44.69999999999999 62.7,53.0 C 68.9,65.69999999999999 69.0,66.5 69.0,120.29999999999998 L 69.0,169.2 L 65.30000000000001,168.5 C 63.20000000000002,168.2 58.10000000000001,166.2 54.0,164.29999999999998 C 44.2,159.6 32.8,148.39999999999998 28.1,139.0 C 21.6,125.69999999999999 21.700000000000003,126.19999999999999 21.300000000000004,73.19999999999999 C 21.000000000000007,46.599999999999966 21.1,24.19999999999999 21.400000000000006,23.399999999999977 C 22.10000000000001,21.599999999999966 30.000000000000007,23.899999999999977 38.50000000000001,28.299999999999955 M 168.5,281.5 C 166.6,283.3 166.0,285.0 166.0,288.0 C 166.0,296.5 175.0,300.1 181.10000000000002,294.1 C 185.20000000000002,290.0 184.8,283.9 180.10000000000002,280.3 C 177.3,278.1 171.20000000000002,278.7 168.50000000000003,281.5 M 178.5,280.6 C 180.9,281.6 183.1,286.6 182.4,289.5 C 181.6,292.7 177.5,296.0 174.3,296.0 C 173.0,296.0 170.8,294.9 169.5,293.5 C 163.2,287.3 170.1,277.4 178.5,280.6 M 171.4,288.0 C 171.3,292.4 171.6,293.0 173.4,293.0 C 174.9,293.0 175.1,292.7 174.20000000000002,291.8 C 172.60000000000002,290.2 172.70000000000002,289.0 174.4,289.0 C 175.20000000000002,289.0 176.20000000000002,289.9 176.5,291.0 C 176.8,292.1 177.8,293.0 178.60000000000002,293.0 C 179.90000000000003,293.0 179.90000000000003,292.7 178.60000000000002,290.8 C 177.50000000000003,289.2 177.3,288.3 178.10000000000002,287.3 C 180.00000000000003,285.1 178.3,283.0 174.8,283.0 C 171.5,283.0 171.5,283.0 171.4,288.0 M 176.5,286.0 C 176.5,288.2 173.6,287.8 173.20000000000002,285.7 C 172.9,284.3 173.3,283.9 174.70000000000002,284.2 C 175.70000000000002,284.4 176.50000000000003,285.2 176.50000000000003,286.0"/></svg>